<svg xmlns="http://www.w3.org/2000/svg" width="31.145" height="23.359" viewBox="0 0 31.145 23.359">
  <path id="iconmonstr-upload-17" d="M20.763,19.87H16.87v6.489h-2.6V19.87H10.382l5.191-5.191ZM25.278,12.2a9.719,9.719,0,0,0-19.411,0,7.134,7.134,0,0,0,1.27,14.155h4.542v-2.6H7.137A4.547,4.547,0,0,1,2.6,19.221c0-3.63,3.217-4.974,5.753-4.827-.217-5.474,2.865-8.8,7.224-8.8,4.481,0,7.645,3.63,7.224,8.8,2.264-.06,5.753.975,5.753,4.827a4.547,4.547,0,0,1-4.542,4.542H19.466v2.6h4.542A7.134,7.134,0,0,0,25.278,12.2Z" transform="translate(0 -3)" fill="#fff"/>
</svg>
