<svg xmlns="http://www.w3.org/2000/svg" width="34.057" height="34" viewBox="0 0 34.057 34">
  <path id="Layer_15" data-name="Layer 15" d="M3.811,8.683H9.56a4.865,4.865,0,0,0,9.585,0h17.1a.811.811,0,0,0,0-1.622h-17.1a4.865,4.865,0,0,0-9.585,0H3.811a.811.811,0,0,0,0,1.622ZM14.352,4.628a3.244,3.244,0,1,1-3.244,3.244A3.244,3.244,0,0,1,14.352,4.628Zm21.894,14.6H30.5a4.865,4.865,0,0,0-9.585,0H3.811a.811.811,0,1,0,0,1.622h17.1a4.865,4.865,0,0,0,9.585,0h5.749a.811.811,0,0,0,0-1.622ZM25.7,23.279a3.244,3.244,0,1,1,3.244-3.244A3.244,3.244,0,0,1,25.7,23.279Zm10.542,8.109h-17.1a4.865,4.865,0,0,0-9.585,0H3.811a.811.811,0,0,0,0,1.622H9.56a4.865,4.865,0,0,0,9.585,0h17.1a.811.811,0,0,0,0-1.622ZM14.352,35.442A3.244,3.244,0,1,1,17.6,32.2,3.244,3.244,0,0,1,14.352,35.442Z" transform="translate(-3 -3.035)"/>
</svg>
