<svg xmlns="http://www.w3.org/2000/svg" width="11.505" height="11.505" viewBox="0 0 11.505 11.505">
  <g id="cb6e34dcb1af0d4afb65702b813effee" transform="translate(0.25 0.25)">
    <path id="Path_404" data-name="Path 404" d="M21.579,20.5A5.5,5.5,0,1,1,16.06,15,5.515,5.515,0,0,1,21.579,20.5Z" transform="translate(-10.574 -15)" fill="none" stroke="#b4b4b4" stroke-width="0.5"/>
    <path id="Path_405" data-name="Path 405" d="M-295.908,1108.4v.917h.942a1.333,1.333,0,0,1,1.52,1.368,1.332,1.332,0,0,1-1.52,1.366h-.942v.917h.942a2.327,2.327,0,0,0,2.437-2.284,2.329,2.329,0,0,0-2.437-2.285Z" transform="translate(299.134 -1106.073)" fill="#b4b4b4" fill-rule="evenodd"/>
    <path id="Path_406" data-name="Path 406" d="M-295.889,1110.224v.917h4.558v-.917Zm0-1.834v.917h4.558v-.917Zm.593,3.655-.642.657,3.1,3.026.641-.657-3.1-3.027Z" transform="translate(299.137 -1106.072)" fill="#b4b4b4" fill-rule="evenodd"/>
  </g>
</svg>
