<svg xmlns="http://www.w3.org/2000/svg" width="14.741" height="14.741" viewBox="0 0 14.741 14.741">
  <g id="Group_591" data-name="Group 591" transform="translate(0.4 0.4)">
    <path id="Path_398" data-name="Path 398" d="M9.958,0h2.277a1.714,1.714,0,0,1,1.706,1.722v2.3A1.715,1.715,0,0,1,12.235,5.74H9.958A1.715,1.715,0,0,1,8.251,4.018v-2.3A1.714,1.714,0,0,1,9.958,0ZM1.707,0H3.983A1.714,1.714,0,0,1,5.69,1.722v2.3A1.715,1.715,0,0,1,3.983,5.74H1.707A1.715,1.715,0,0,1,0,4.018v-2.3A1.714,1.714,0,0,1,1.707,0Zm0,8.2H3.983A1.715,1.715,0,0,1,5.69,9.924v2.3a1.714,1.714,0,0,1-1.707,1.722H1.707A1.714,1.714,0,0,1,0,12.22v-2.3A1.715,1.715,0,0,1,1.707,8.2Zm8.251,0h2.277a1.715,1.715,0,0,1,1.706,1.723v2.3a1.714,1.714,0,0,1-1.706,1.722H9.958A1.715,1.715,0,0,1,8.251,12.22v-2.3A1.715,1.715,0,0,1,9.958,8.2Z" transform="translate(0 0)" fill="none" stroke="#b4b4b4" stroke-linecap="round" stroke-linejoin="round" stroke-width="0.8" fill-rule="evenodd"/>
  </g>
</svg>
