<svg xmlns="http://www.w3.org/2000/svg" width="19.413" height="11.041" viewBox="0 0 19.413 11.041">
  <path id="Path_397" data-name="Path 397" d="M6.47,2.99,6.3,3.138C4.313,4.853,2.433,6.475.663,8.053l-.517.462.519.457c2.063,1.813,4.182,3.464,5.6,4.88l.18.18H19.559V2.99H6.472Zm.457,1.225H18.334v8.592H6.925C5.572,11.484,3.777,10.038,2,8.51Q4.452,6.347,6.927,4.215Zm.995,2.45A1.837,1.837,0,1,0,9.759,8.5,1.848,1.848,0,0,0,7.922,6.665Zm0,1.225a.616.616,0,1,1-.612.612A.6.6,0,0,1,7.922,7.89Z" transform="translate(-0.146 -2.99)" fill="#b4b4b4"/>
</svg>
