<svg xmlns="http://www.w3.org/2000/svg" width="14.738" height="16.535" viewBox="0 0 14.738 16.535">
  <g id="Group_876" data-name="Group 876" transform="translate(-1591.981 -1300.859)">
    <g id="a5ba61f80995552342572bcf6b40366c" transform="translate(1572.281 1284.859)">
      <path id="Path_457" data-name="Path 457" d="M34.293,20.953l-4.832-4.832A.462.462,0,0,0,29.145,16H20.137a.435.435,0,0,0-.437.437V29.33a3.2,3.2,0,0,0,3.205,3.205h8.328a3.2,3.2,0,0,0,3.205-3.205V21.269A.636.636,0,0,0,34.293,20.953ZM33.54,29.33a2.321,2.321,0,0,1-2.307,2.307H22.881a2.321,2.321,0,0,1-2.307-2.307V16.874h8.377l4.565,4.565V29.33Z" fill="#929292"/>
    </g>
    <path id="Path_458" data-name="Path 458" d="M5.523,12.046a.523.523,0,0,1,0-1.046H11.8a.523.523,0,1,1,0,1.046Z" transform="translate(1590.339 1298.366)" fill="#929292"/>
  </g>
</svg>
