<svg xmlns="http://www.w3.org/2000/svg" width="19.923" height="13.697" viewBox="0 0 19.923 13.697">
  <path id="c7a9ad2e31555f6d38657c6951019bb6" d="M18.678,6H1.245A1.245,1.245,0,0,0,0,7.245V18.452A1.245,1.245,0,0,0,1.245,19.7H18.678a1.245,1.245,0,0,0,1.245-1.245V7.245A1.245,1.245,0,0,0,18.678,6ZM1.245,7.245H18.678V18.452H1.245Zm15.668,4.981H9.339a.623.623,0,0,0,0,1.245h7.574a.623.623,0,1,0,0-1.245Zm0,2.49H9.339a.623.623,0,0,0,0,1.245h7.574a.623.623,0,1,0,0-1.245Zm0-4.981H9.339a.623.623,0,0,0,0,1.245h7.574a.623.623,0,1,0,0-1.245ZM3.474,9.995a1.5,1.5,0,1,0,1.5-1.5A1.5,1.5,0,0,0,3.474,9.995ZM5.011,12.1c-1.36,0-2.46,1.477-2.46,3.3s4.921,1.822,4.921,0S6.369,12.1,5.011,12.1Z" transform="translate(0 -6)" fill="#820f4c"/>
</svg>
