<svg xmlns="http://www.w3.org/2000/svg" width="18.001" height="17.079" viewBox="0 0 18.001 17.079">
  <path id="Path_383" data-name="Path 383" d="M35.971,33.7H34.759V32.487a.305.305,0,0,0-.61,0V33.7H24.043V32.487a.305.305,0,0,0-.61,0V33.7h-1.4A2.033,2.033,0,0,0,20,35.716V47.243a2.035,2.035,0,0,0,2.03,2.018H35.971A2.035,2.035,0,0,0,38,47.243V35.716A2.033,2.033,0,0,0,35.971,33.7Zm-13.941.61h1.4v1.222a.305.305,0,0,0,.61,0V34.311H34.149v1.222a.305.305,0,0,0,.61,0V34.311h1.212a1.422,1.422,0,0,1,1.42,1.4v1.608H20.61V35.716A1.422,1.422,0,0,1,22.03,34.311ZM35.971,48.65H22.03a1.425,1.425,0,0,1-1.42-1.408V37.934h16.78v9.309A1.425,1.425,0,0,1,35.971,48.65Z" transform="translate(-20 -32.182)"/>
</svg>
