<svg id="notifications" xmlns="http://www.w3.org/2000/svg" width="58.051" height="58.051" viewBox="0 0 58.051 58.051">
  <circle id="Ellipse_8" data-name="Ellipse 8" cx="29.025" cy="29.025" r="29.025" fill="#fff"/>
  <path id="notifications-2" data-name="notifications" d="M735.831,1825.2v3.57c-4.245.632-7.534,4.695-7.534,9.609v4.8a7.151,7.151,0,0,1-2.935,6.366l-2.313,1.937h9.686a4.261,4.261,0,0,0,8.492,0h9.686l-2.314-1.937a7.152,7.152,0,0,1-2.934-6.366v-4.8c0-4.914-3.289-8.977-7.535-9.609v-3.57Zm1.15,27.978a2.043,2.043,0,0,1-1.938-1.692h3.877A2.043,2.043,0,0,1,736.982,1853.182Zm6.384-14.8v4.8a9.181,9.181,0,0,0,1.823,6.1H728.775a9.181,9.181,0,0,0,1.823-6.1v-4.8c0-4.134,2.863-7.5,6.383-7.5S743.366,1834.249,743.366,1838.383Z" transform="translate(-707.977 -1812.236)" fill="#52575d"/>
  <circle id="Ellipse_10" data-name="Ellipse 10" cx="6" cy="6" r="6" transform="translate(14.563 15)" fill="#1bc167"/>
</svg>
