<svg id="profile" xmlns="http://www.w3.org/2000/svg" width="58" height="58" viewBox="0 0 58 58">
  <circle id="Ellipse_9" data-name="Ellipse 9" cx="29" cy="29" r="29" fill="#fff"/>
  <path id="profile-2" data-name="profile" d="M0,25.542l.192-1.335c.743-5.14,6.151-9.017,12.579-9.017s11.836,3.877,12.58,9.017l.192,1.335ZM2.876,23.2h19.79c-1.253-3.314-5.238-5.675-9.9-5.675S4.13,19.89,2.876,23.2ZM5.608,7.092a7.164,7.164,0,0,1,14.327,0,7.164,7.164,0,0,1-14.327,0Zm2.362,0a4.8,4.8,0,1,0,4.8-4.754A4.783,4.783,0,0,0,7.969,7.092Z" transform="translate(16.329 16.329)" fill="#d2cece" stroke="rgba(0,0,0,0)" stroke-width="1"/>
</svg>
