<svg xmlns="http://www.w3.org/2000/svg" width="7.131" height="11.409" viewBox="0 0 7.131 11.409">
  <path id="Path_473" data-name="Path 473" d="M9.852,13.983a1.426,1.426,0,1,1-1.426-1.426A1.43,1.43,0,0,1,9.852,13.983Zm-1.426-5.7A1.426,1.426,0,1,0,9.852,9.7,1.43,1.43,0,0,0,8.426,8.278ZM8.426,4A1.426,1.426,0,1,0,9.852,5.426,1.43,1.43,0,0,0,8.426,4ZM12.7,6.852a1.426,1.426,0,1,0-1.426-1.426A1.43,1.43,0,0,0,12.7,6.852Zm0,1.426A1.426,1.426,0,1,0,14.131,9.7,1.43,1.43,0,0,0,12.7,8.278Zm0,4.278a1.426,1.426,0,1,0,1.426,1.426A1.43,1.43,0,0,0,12.7,12.557Z" transform="translate(-7 -4)" fill="#d2cece"/>
</svg>
